<svg width="386" height="264" viewBox="0 0 386 264" fill="none" xmlns="http://www.w3.org/2000/svg">
<path d="M156.265 122.241C143.562 122.241 133.148 111.997 123.001 105.684C113.676 99.8817 110.621 90.0471 110.621 79.0578C110.621 61.5204 110.076 46.9478 125.686 35.2776C140.88 23.9194 169.726 22.9819 180.505 40.4984C190.036 55.9856 184.928 76.5986 185.8 94.049C185.906 96.159 187.143 97.9404 187.143 100.09C187.143 105.185 191.434 89.3837 191.767 88.3061C195.525 76.1466 199.959 65.9585 206.833 55.2658C213.985 44.1398 219.729 37.1194 233.235 35.2776C240.943 34.2266 249.116 34.9793 256.878 34.9793C267.173 34.9793 270.907 38.6913 276.941 46.9871C285.066 58.1586 288.852 77.1996 282.46 90.1707C277.162 100.922 264.773 107.759 255.013 113.515C247.983 117.661 242.377 119.577 234.801 121.57C233.033 122.036 227.528 122.241 229.357 122.241C236.615 122.241 243.877 122.17 251.135 122.241C258.728 122.316 270.198 124.09 277.165 127.164C288.878 132.332 298.144 151.619 300.658 163.262C301.827 168.673 302.597 174.36 302.597 179.894C302.597 189.115 294.67 192.689 287.382 196.974C275.932 203.706 263.875 209.205 250.315 209.205C239.31 209.205 230.981 202.401 222.719 196.004C211.644 187.43 208.613 174.686 204.297 162.218C200.816 152.162 204.595 183.499 204.595 194.139C204.595 209.95 202.623 220.724 191.17 232.177C183.286 240.061 171.845 249.778 159.995 249.778C136.693 249.778 124.648 223.934 121.659 204.134C120.418 195.912 120.92 186.532 124.344 178.925C128.757 169.119 142.977 163.931 122.778 169.378C104.554 174.292 83.2421 183.575 64.3791 176.24C51.3146 171.159 40.605 164.938 39.543 149.539C38.7354 137.829 37.8082 124.904 44.9875 114.932C52.9446 103.881 66.7686 103.446 79.1466 103.446C103.982 103.446 126.076 119.556 150.895 119.556" stroke="#1F65EF" stroke-width="5" stroke-linecap="round"/>
<path d="M192.513 116.871C181.39 116.871 167.467 117.427 163.276 129.998C158.137 145.416 179.651 142.379 188.187 142.379C191.049 142.379 194.314 142.817 197.137 142.304C199.515 141.872 200.387 138.393 202.209 137.009C205.542 134.475 205.938 130.598 205.938 126.567C205.938 118.053 200.55 115.529 192.513 115.529" stroke="#1F65EF" stroke-width="5" stroke-linecap="round"/>
<path d="M111.963 131.639C122.154 131.639 130.152 134.666 140.156 135.666" stroke="#1F65EF" stroke-width="5" stroke-linecap="round"/>
<path d="M153.581 63.1719C153.581 73.7804 158.865 80.4532 162.978 88.6793" stroke="#1F65EF" stroke-width="5" stroke-linecap="round"/>
<path d="M216.678 95.3913C223.076 91.4304 233.062 86.9633 237.412 80.9221C239.401 78.16 244.766 73.9636 247.555 72.5688" stroke="#1F65EF" stroke-width="5" stroke-linecap="round"/>
<path d="M215.335 139.694C226.71 150.744 243.8 169.229 260.98 169.229" stroke="#1F65EF" stroke-width="5" stroke-linecap="round"/>
<path d="M180.43 161.174C179.968 163.252 177.08 168.847 175.806 170.87C173.334 174.796 173.718 178.189 173.718 182.728C173.718 190.532 172.375 197.88 172.375 205.476" stroke="#1F65EF" stroke-width="5" stroke-linecap="round"/>
</svg>
