<svg width="386" height="264" viewBox="0 0 386 264" fill="none" xmlns="http://www.w3.org/2000/svg">
<path d="M133.944 89.0403C136.25 78.6663 142.275 69.8786 146.425 60.1649C149.075 53.963 150.934 46.3945 155.017 40.9512C158.55 36.24 163.087 32.2447 167.537 28.4307C172.617 24.0766 179.311 30.7543 182.788 33.9251C188.146 38.8105 191.493 46.6536 195.109 52.8391C199.289 59.989 204.812 66.5186 208.529 73.9508C210.685 78.2645 211.642 83.0418 213.69 87.1374" stroke="#1F65EF" stroke-width="5" stroke-linecap="round"/>
<path d="M123.021 154.177C113.192 150.338 104.425 143.547 95.5335 138.31C89.8565 134.967 82.713 132.02 78.0059 127.638C73.9319 123.845 70.7186 119.358 67.6697 114.978C64.189 109.977 71.7988 105.708 75.4591 103.435C81.0988 99.9315 89.3285 98.6395 95.972 96.8153C103.651 94.7066 110.932 91.3746 118.816 89.7011C123.392 88.7297 128.1 90.6233 132.445 89.7011" stroke="#1F65EF" stroke-width="5" stroke-linecap="round"/>
<path d="M176.02 196.755C167.691 203.235 157.371 207.291 148.322 212.251C142.544 215.417 136.356 220.046 130.183 221.848C124.839 223.407 119.34 223.871 114.016 224.249C107.939 224.68 108.166 215.958 108.086 211.65C107.962 205.012 111.064 197.28 112.896 190.639C115.014 182.962 115.878 175.002 118.475 167.372C119.982 162.944 122.55 158.836 123.981 154.632" stroke="#1F65EF" stroke-width="5" stroke-linecap="round"/>
<path d="M176.677 196.621C185.005 203.101 193.452 207.292 202.501 212.251C208.279 215.417 214.466 220.046 220.64 221.848C225.983 223.407 231.482 223.871 236.806 224.249C242.884 224.68 242.657 215.958 242.737 211.65C242.86 205.012 239.759 197.28 237.926 190.639C235.808 182.962 234.945 175.002 232.348 167.372C230.841 162.944 228.273 158.836 226.842 154.632" stroke="#1F65EF" stroke-width="5" stroke-linecap="round"/>
<path d="M226.289 154.177C236.118 150.338 244.885 143.547 253.777 138.31C259.454 134.967 266.597 132.02 271.304 127.638C275.378 123.845 278.591 119.358 281.64 114.978C285.121 109.977 277.511 105.708 273.851 103.435C268.211 99.9315 259.982 98.6395 253.338 96.8153C245.659 94.7066 238.378 91.3746 230.494 89.7011C225.918 88.7297 218.88 88.4633 214.536 87.5411" stroke="#1F65EF" stroke-width="5" stroke-linecap="round"/>
</svg>
