<svg width="49" height="56" viewBox="0 0 49 56" fill="none" xmlns="http://www.w3.org/2000/svg">
<path d="M4.01465 45.8836C4.25128 45.016 5.23679 44.239 5.78141 43.5718C7.97686 40.8824 10.0387 38.1228 12.435 35.6026C15.2781 32.6124 17.4596 29.0827 20.0095 25.8478C21.7548 23.6337 23.5828 21.4468 25.2722 19.1942C27.0925 16.7672 28.5945 14.1474 30.4033 11.7137C31.2683 10.55 32.9887 9.37067 33.4482 7.99219" stroke="#615E5E" stroke-width="5" stroke-linecap="round"/>
<path d="M3 7.31445C10.1344 15.468 19.2407 21.997 27.1708 29.3802C29.5582 31.6029 30.6344 34.3116 32.4335 36.7104C33.9581 38.7431 35.1828 41.025 36.7941 42.9881C38.4971 45.0631 40.3609 46.8514 41.5681 49.2657" stroke="#615E5E" stroke-width="5" stroke-linecap="round"/>
</svg>
