<svg width="52" height="52" viewBox="0 0 52 52" fill="none" xmlns="http://www.w3.org/2000/svg">
<path d="M5.55556 11.0833L23.2911 24.4573C24.9484 25.707 27.0516 25.707 28.7089 24.4573L46.4444 11.0833M8.11111 45H43.8889C46.7118 45 49 42.2392 49 38.8333V14.1667C49 10.7609 46.7118 8 43.8889 8H8.11111C5.28832 8 3 10.7609 3 14.1667V38.8333C3 42.2392 5.28832 45 8.11111 45Z" fill="#1F65EF"/>
<path d="M5.55556 11.0833L23.2911 24.4573C24.9484 25.707 27.0516 25.707 28.7089 24.4573L46.4444 11.0833M8.11111 45H43.8889C46.7118 45 49 42.2392 49 38.8333V14.1667C49 10.7609 46.7118 8 43.8889 8H8.11111C5.28832 8 3 10.7609 3 14.1667V38.8333C3 42.2392 5.28832 45 8.11111 45Z" stroke="white" stroke-width="5" stroke-linecap="round" stroke-linejoin="round"/>
</svg>
