<svg width="52" height="52" viewBox="0 0 52 52" fill="none" xmlns="http://www.w3.org/2000/svg">
<path d="M26 1C21.0556 1 16.222 2.46622 12.1107 5.21325C7.99953 7.96028 4.79522 11.8647 2.90303 16.4329C1.01084 21.0009 0.515748 26.0278 1.48037 30.8772C2.445 35.7269 4.82603 40.1813 8.32234 43.6778C11.8187 47.1741 16.2732 49.555 21.1228 50.5197C25.9722 51.4844 30.9991 50.9891 35.5672 49.0969C40.1353 47.2047 44.0397 44.0006 46.7869 39.8894C49.5337 35.7781 51 30.9447 51 26C51 19.3696 48.3659 13.0108 43.6778 8.32234C38.9894 3.63391 32.6303 1 26 1ZM38.2812 18.125L34.1875 37.4688C33.875 38.8438 33.0625 39.1563 31.9062 38.5313L25.6562 33.9062L22.5312 36.8125C22.3841 37.0047 22.195 37.1609 21.9784 37.2694C21.7619 37.3775 21.5234 37.435 21.2812 37.4375L21.7187 31.1875L33.2812 20.7188C33.8125 20.2813 33.2812 20.0312 32.5312 20.4687L18.3437 29.375L12.0937 27.4375C10.75 27.0313 10.7187 26.0937 12.375 25.4687L36.4687 16.0937C37.6562 15.75 38.6562 16.4375 38.2812 18.125Z" fill="#1F65EF"/>
</svg>
