<svg width="386" height="264" viewBox="0 0 386 264" fill="none" xmlns="http://www.w3.org/2000/svg">
<path d="M120.116 26C122.465 26.8681 119.418 36.5108 119.152 38.0603C118.504 41.8267 117.108 45.8194 114.872 49.0512C112.081 53.0866 108.997 56.7932 105.469 60.2204C99.6439 65.8801 94.6663 67.981 86.8138 70.1122C76.8638 72.8128 67.3795 75.1918 57.0073 75.1918C56.7982 75.1918 55.1825 75.0299 55.0182 75.1918C54.9126 75.2959 55.2942 75.3091 55.4402 75.3404C56.8091 75.6337 61.824 76.4955 62.3418 76.588C71.1273 78.1575 78.4217 80.1333 86.0001 84.9351C91.0547 88.1379 96.0515 91.706 100.165 96.0449C103.372 99.4276 104.883 102.935 107.067 106.917C108.353 109.263 109.771 111.686 110.261 114.343C110.544 115.878 110.207 117.267 110.924 118.74C112.147 121.251 112.809 123.779 113.727 126.404C115.305 130.913 115.687 135.752 116.741 140.424C117.364 143.186 116.042 147.97 117.826 150.168C118.451 150.938 117.689 152.587 118.218 153.524C118.906 154.745 119.031 155.625 119.031 157" stroke="#1F65EF" stroke-width="5" stroke-linecap="round"/>
<path d="M204.264 139C206.221 139.716 203.682 147.665 203.46 148.943C202.92 152.048 201.757 155.34 199.894 158.004C197.567 161.331 194.997 164.387 192.058 167.212C187.203 171.878 183.055 173.61 176.512 175.367C168.22 177.594 160.316 179.555 151.673 179.555C151.499 179.555 150.152 179.422 150.015 179.555C149.927 179.641 150.245 179.652 150.367 179.678C151.508 179.919 155.687 180.63 156.118 180.706C163.439 182 169.518 183.629 175.833 187.588C180.046 190.228 184.21 193.17 187.637 196.747C190.31 199.536 191.569 202.428 193.389 205.71C194.461 207.644 195.642 209.642 196.051 211.833C196.287 213.098 196.006 214.243 196.604 215.457C197.623 217.527 198.174 219.612 198.939 221.776C200.254 225.493 200.573 229.482 201.451 233.335C201.97 235.612 200.869 239.556 202.355 241.367C202.876 242.002 202.241 243.362 202.681 244.135C203.255 245.141 203.359 245.866 203.359 247" stroke="#1F65EF" stroke-width="5" stroke-linecap="round"/>
<path d="M118.87 26C116.557 26.8681 119.558 36.5108 119.82 38.0603C120.458 41.8267 121.833 45.8194 124.035 49.0512C126.784 53.0866 129.821 56.7932 133.295 60.2204C139.033 65.8801 143.935 67.981 151.668 70.1122C161.468 72.8128 170.808 75.1918 181.023 75.1918C181.229 75.1918 182.82 75.0299 182.982 75.1918C183.086 75.2959 182.71 75.3091 182.567 75.3404C181.218 75.6337 176.279 76.4955 175.769 76.588C167.117 78.1575 159.933 80.1333 152.47 84.9351C147.492 88.1379 142.57 91.706 138.519 96.0449C135.361 99.4276 133.873 102.935 131.722 106.917C130.455 109.263 129.059 111.686 128.576 114.343C128.297 115.878 128.629 117.267 127.923 118.74C126.719 121.251 126.067 123.779 125.163 126.404C123.609 130.913 123.232 135.752 122.195 140.424C121.581 143.186 122.883 147.97 121.126 150.168C120.51 150.938 121.261 152.587 120.74 153.524C120.062 154.745 119.939 155.625 119.939 157" stroke="#1F65EF" stroke-width="5" stroke-linecap="round"/>
<path d="M202.723 139C200.801 139.716 203.294 147.665 203.512 148.943C204.042 152.048 205.184 155.34 207.014 158.004C209.297 161.331 211.821 164.387 214.707 167.212C219.473 171.878 223.546 173.61 229.97 175.367C238.111 177.594 245.871 179.555 254.358 179.555C254.529 179.555 255.851 179.422 255.985 179.555C256.071 179.641 255.759 179.652 255.64 179.678C254.52 179.919 250.417 180.63 249.993 180.706C242.805 182 236.837 183.629 230.636 187.588C226.501 190.228 222.412 193.17 219.047 196.747C216.423 199.536 215.187 202.428 213.4 205.71C212.348 207.644 211.187 209.642 210.786 211.833C210.555 213.098 210.83 214.243 210.244 215.457C209.243 217.527 208.702 219.612 207.951 221.776C206.66 225.493 206.347 229.482 205.485 233.335C204.975 235.612 206.056 239.556 204.597 241.367C204.086 242.002 204.709 243.362 204.276 244.135C203.713 245.141 203.611 245.866 203.611 247" stroke="#1F65EF" stroke-width="5" stroke-linecap="round"/>
</svg>
