<svg width="238" height="15" viewBox="0 0 238 15" fill="none" xmlns="http://www.w3.org/2000/svg">
<path d="M1.05518 7.37796C3.5851 6.98874 5.53813 5.3535 8.13647 5.25357C11.399 5.12809 14.6529 4.1428 17.8929 3.67995C25.2127 2.63427 32.7693 3.12918 40.1597 3.12918C49.0224 3.12918 57.8641 2.42105 66.7539 2.42105C73.1446 2.42105 79.3781 3.12918 85.7554 3.12918C97.203 3.12918 108.305 5.9617 119.667 5.9617C121.555 5.9617 123.444 5.9617 125.332 5.9617C126.408 5.9617 129.571 3.5103 127.81 2.57841C125.135 1.16204 120.758 1.49163 117.897 1.87028C115.189 2.22865 113.258 3.0992 112.389 5.80434C112 7.01542 111.808 9.63124 113.018 10.3678C120.587 14.9751 130.478 13.7511 138.904 13.7511C143.87 13.7511 149.071 14.1781 154.011 13.5938C156.129 13.3433 166.463 11.9362 167.387 9.85641C168.391 7.59772 167.977 7.48003 171.164 6.31576C177.71 3.92401 184.841 3.1278 191.699 2.10632C195.585 1.52755 198.613 2.14756 202.243 2.38171C213.678 3.11949 225.383 2.42105 236.862 2.42105" stroke="#1F65EF" stroke-width="1.5" stroke-linecap="round"/>
</svg>
